<!-- Generated by IcoMoon.io -->
<svg version="1.1" xmlns="http://www.w3.org/2000/svg" width="50" height="32" viewBox="0 0 50 32">
<title>logo-ef2</title>
<path d="M4.981 0c-2.741 0-4.981 2.24-4.981 4.981v22.132h38.485l6.861-7.205c0.924-1.034 1.3-1.504 1.3-2.522 0-1.566-0.987-2.631-2.443-2.631-1.582 0-2.725 1.206-2.725 2.882v0.204h-2.851v-0.329c0-3.65 2.757-5.545 5.482-5.545 3.759 0 4.997 2.209 5.388 3.712v-15.679h-44.515zM28.163 18.624h-8.020c0.172 1.363 1.269 2.506 3.101 2.506 1.002 0 2.193-0.407 2.882-1.065l1.253 1.833c-1.065 0.987-2.772 1.488-4.448 1.488-3.274 0-5.764-2.209-5.764-5.67 0-3.117 2.303-5.639 5.576-5.639 3.211 0 5.404 2.412 5.404 5.936v0.611zM36.746 12.562v2.475h-2.365v8.333h-2.851v-8.333h-1.457v-2.475h1.441v-1.034c0-2.35 1.613-3.978 3.728-3.978 0.799 0 1.535 0.172 2.052 0.439l-0.674 2.224c-0.251-0.157-0.58-0.219-0.908-0.219-0.799 0-1.331 0.533-1.331 1.566v0.987h2.365z"></path>
<path d="M22.759 14.316c-1.77 0-2.522 1.316-2.663 2.381h5.31c-0.047-1.018-0.767-2.381-2.647-2.381z"></path>
<path d="M49.496 32c0.016 0 0.016-0.016 0 0v-12.437l-6.798 7.565c3.556 0.031 5.811 2.052 6.798 4.871z"></path>
</svg>
