<?xml version="1.0" encoding="utf-8"?>
<!-- Generator: Adobe Illustrator 24.3.0, SVG Export Plug-In . SVG Version: 6.00 Build 0)  -->
<svg version="1.1" id="Laag_1" xmlns="http://www.w3.org/2000/svg" xmlns:xlink="http://www.w3.org/1999/xlink" x="0px" y="0px"
	 viewBox="0 0 241.6 160.2" style="enable-background:new 0 0 241.6 160.2;" xml:space="preserve">
<style type="text/css">
	.st0{fill:#FF4600;}
	.st1{fill:#000B15;}
</style>
<g>
	<path class="st0" d="M24.7,0C11.3,0,0.4,10.9,0.4,24.3v111.2h187.5l33.4-35.1c4.5-5.1,6.4-7.3,6.4-12.3c0-7.7-4.8-12.8-11.9-12.8
		c-7.7,0-13.3,5.9-13.3,14v1h-13.9v-1.6c0-17.8,13.4-27,26.7-27c18.4,0,24.3,10.7,26.3,18.1V0H24.7z M137.6,94h-39
		c0.9,6.6,6.2,12.2,15.1,12.2c4.9,0,10.7-2,14-5.2l6.1,8.9c-5.2,4.8-13.5,7.3-21.6,7.3c-16,0-28.1-10.8-28.1-27.6
		c0-15.2,11.2-27.5,27.2-27.5c15.7,0,26.3,11.7,26.3,28.9V94z M179.4,64.5v12.1h-11.5v40.6H154V76.6h-7V64.5h7v-5.4
		c0-11.4,7.8-19.4,18.2-19.4c3.9,0,7.5,0.9,10,2.2l-3.3,10.9c-1.2-0.8-2.8-1.1-4.5-1.1c-3.9,0-6.5,2.6-6.5,7.6v5.2H179.4z"/>
	<path class="st0" d="M111.3,73.1c-8.6,0-12.3,6.4-12.9,11.6h25.9C123.9,79.7,120.4,73.1,111.3,73.1z"/>
</g>
<path class="st1" d="M241.6,157.9V98.6l-33.1,36.9C225.8,135.7,236.8,144.2,241.6,157.9z"/>
<path class="st1" d="M1.9,159.7c-0.6-0.3-1.1-0.8-1.4-1.3s-0.5-1.2-0.5-2v-3.6c0-0.8,0.2-1.4,0.5-2s0.8-1,1.4-1.3
	c0.6-0.3,1.3-0.5,2.2-0.5c0.8,0,1.5,0.2,2.1,0.4c0.6,0.3,1.1,0.7,1.4,1.3c0.3,0.6,0.5,1.2,0.5,1.9c0,0.1-0.1,0.2-0.2,0.2l-1.8,0.1h0
	c-0.1,0-0.2-0.1-0.2-0.2c0-0.6-0.2-1-0.5-1.3c-0.3-0.3-0.8-0.5-1.3-0.5c-0.6,0-1,0.2-1.4,0.5c-0.3,0.3-0.5,0.8-0.5,1.3v3.8
	c0,0.5,0.2,1,0.5,1.3c0.3,0.3,0.8,0.5,1.4,0.5c0.6,0,1-0.2,1.3-0.5c0.3-0.3,0.5-0.8,0.5-1.3c0-0.1,0.1-0.2,0.2-0.2l1.8,0.1
	c0.1,0,0.1,0,0.1,0c0,0,0.1,0.1,0.1,0.1c0,0.7-0.2,1.4-0.5,1.9c-0.3,0.6-0.8,1-1.4,1.3c-0.6,0.3-1.3,0.5-2.1,0.5
	C3.3,160.2,2.6,160,1.9,159.7z"/>
<path class="st1" d="M16.6,159.9l-2-4.4c0,0-0.1-0.1-0.1-0.1H13c-0.1,0-0.1,0-0.1,0.1v4.3c0,0.1,0,0.1-0.1,0.1c0,0-0.1,0.1-0.1,0.1
	h-1.8c-0.1,0-0.1,0-0.1-0.1c0,0-0.1-0.1-0.1-0.1v-10.7c0-0.1,0-0.1,0.1-0.1c0,0,0.1-0.1,0.1-0.1h4.5c0.7,0,1.3,0.1,1.8,0.4
	c0.5,0.3,0.9,0.7,1.2,1.2c0.3,0.5,0.4,1.1,0.4,1.7c0,0.7-0.2,1.3-0.5,1.8s-0.9,0.9-1.5,1.1c-0.1,0-0.1,0.1,0,0.1l2.1,4.5
	c0,0,0,0.1,0,0.1c0,0.1-0.1,0.1-0.2,0.1h-1.9C16.7,160,16.6,160,16.6,159.9z M13,151v2.7c0,0.1,0,0.1,0.1,0.1h2.1
	c0.4,0,0.8-0.1,1.1-0.4c0.3-0.3,0.4-0.6,0.4-1c0-0.4-0.1-0.8-0.4-1s-0.6-0.4-1.1-0.4L13,151C13,150.9,13,150.9,13,151z"/>
<path class="st1" d="M29,150.8c0,0-0.1,0.1-0.1,0.1h-5.2c-0.1,0-0.1,0-0.1,0.1v2.4c0,0.1,0,0.1,0.1,0.1h3.4c0.1,0,0.1,0,0.1,0.1
	c0,0,0.1,0.1,0.1,0.1v1.5c0,0.1,0,0.1-0.1,0.1c0,0-0.1,0.1-0.1,0.1h-3.4c-0.1,0-0.1,0-0.1,0.1v2.6c0,0.1,0,0.1,0.1,0.1h5.2
	c0.1,0,0.1,0,0.1,0.1c0,0,0.1,0.1,0.1,0.1v1.5c0,0.1,0,0.1-0.1,0.1c0,0-0.1,0.1-0.1,0.1h-7.3c-0.1,0-0.1,0-0.1-0.1
	c0,0-0.1-0.1-0.1-0.1v-10.7c0-0.1,0-0.1,0.1-0.1c0,0,0.1-0.1,0.1-0.1h7.3c0.1,0,0.1,0,0.1,0.1c0,0,0.1,0.1,0.1,0.1v1.5
	C29.1,150.8,29,150.8,29,150.8z"/>
<path class="st1" d="M38.6,159.9l-0.5-1.5c0,0,0-0.1-0.1-0.1h-3.9c0,0-0.1,0-0.1,0.1l-0.5,1.5c0,0.1-0.1,0.2-0.2,0.2h-2
	c-0.1,0-0.1,0-0.1-0.1c0,0,0-0.1,0-0.2l3.4-10.7c0-0.1,0.1-0.2,0.2-0.2h2.5c0.1,0,0.2,0.1,0.2,0.2l3.4,10.7c0,0,0,0,0,0.1
	c0,0.1-0.1,0.1-0.2,0.1h-2C38.7,160,38.7,160,38.6,159.9z M34.8,156.5h2.8c0.1,0,0.1,0,0.1-0.1l-1.4-4.7c0,0,0-0.1,0-0.1s0,0,0,0.1
	L34.8,156.5C34.7,156.5,34.7,156.5,34.8,156.5z"/>
<path class="st1" d="M50.1,149.1c0,0,0.1,0.1,0.1,0.1v1.5c0,0.1,0,0.1-0.1,0.1c0,0-0.1,0.1-0.1,0.1h-2.8c-0.1,0-0.1,0-0.1,0.1v8.8
	c0,0.1,0,0.1-0.1,0.1c0,0-0.1,0.1-0.1,0.1h-1.8c-0.1,0-0.1,0-0.1-0.1c0,0-0.1-0.1-0.1-0.1V151c0-0.1,0-0.1-0.1-0.1H42
	c-0.1,0-0.1,0-0.1-0.1c0,0-0.1-0.1-0.1-0.1v-1.5c0-0.1,0-0.1,0.1-0.1c0,0,0.1-0.1,0.1-0.1H50C50,149,50.1,149,50.1,149.1z"/>
<path class="st1" d="M52.7,160c0,0-0.1-0.1-0.1-0.1v-10.7c0-0.1,0-0.1,0.1-0.1c0,0,0.1-0.1,0.1-0.1h1.8c0.1,0,0.1,0,0.1,0.1
	c0,0,0.1,0.1,0.1,0.1v10.7c0,0.1,0,0.1-0.1,0.1c0,0-0.1,0.1-0.1,0.1h-1.8C52.8,160,52.7,160,52.7,160z"/>
<path class="st1" d="M60.5,159.9l-3.2-10.7l0-0.1c0-0.1,0.1-0.2,0.2-0.2h2c0.1,0,0.2,0.1,0.2,0.2l2.1,7.7c0,0,0,0,0,0c0,0,0,0,0,0
	l2.1-7.7c0-0.1,0.1-0.2,0.2-0.2h1.9c0.1,0,0.1,0,0.1,0.1c0,0,0,0.1,0,0.2l-3.3,10.7c0,0.1-0.1,0.2-0.2,0.2h-2
	C60.6,160,60.6,160,60.5,159.9z"/>
<path class="st1" d="M76.3,150.8c0,0-0.1,0.1-0.1,0.1H71c-0.1,0-0.1,0-0.1,0.1v2.4c0,0.1,0,0.1,0.1,0.1h3.4c0.1,0,0.1,0,0.1,0.1
	c0,0,0.1,0.1,0.1,0.1v1.5c0,0.1,0,0.1-0.1,0.1c0,0-0.1,0.1-0.1,0.1H71c-0.1,0-0.1,0-0.1,0.1v2.6c0,0.1,0,0.1,0.1,0.1h5.2
	c0.1,0,0.1,0,0.1,0.1c0,0,0.1,0.1,0.1,0.1v1.5c0,0.1,0,0.1-0.1,0.1c0,0-0.1,0.1-0.1,0.1h-7.3c-0.1,0-0.1,0-0.1-0.1
	c0,0-0.1-0.1-0.1-0.1v-10.7c0-0.1,0-0.1,0.1-0.1c0,0,0.1-0.1,0.1-0.1h7.3c0.1,0,0.1,0,0.1,0.1c0,0,0.1,0.1,0.1,0.1v1.5
	C76.3,150.8,76.3,150.8,76.3,150.8z"/>
<path class="st1" d="M88.8,153.6c0,0,0.1,0.1,0.1,0.1v1.5c0,0.1,0,0.1-0.1,0.1c0,0-0.1,0.1-0.1,0.1h-2.2c-0.1,0-0.1,0-0.1,0.1v2.1
	c0,0.1,0,0.1-0.1,0.1c0,0-0.1,0.1-0.1,0.1h-1.5c-0.1,0-0.1,0-0.1-0.1c0,0-0.1-0.1-0.1-0.1v-2.1c0-0.1,0-0.1-0.1-0.1h-2.2
	c-0.1,0-0.1,0-0.1-0.1c0,0-0.1-0.1-0.1-0.1v-1.5c0-0.1,0-0.1,0.1-0.1c0,0,0.1-0.1,0.1-0.1h2.2c0.1,0,0.1,0,0.1-0.1v-2.2
	c0-0.1,0-0.1,0.1-0.1c0,0,0.1-0.1,0.1-0.1h1.5c0.1,0,0.1,0,0.1,0.1c0,0,0.1,0.1,0.1,0.1v2.2c0,0.1,0,0.1,0.1,0.1h2.2
	C88.7,153.6,88.7,153.6,88.8,153.6z"/>
<path class="st1" d="M95,160c0,0-0.1-0.1-0.1-0.1v-10.7c0-0.1,0-0.1,0.1-0.1c0,0,0.1-0.1,0.1-0.1h3.9c0.8,0,1.5,0.1,2.1,0.4
	c0.6,0.3,1.1,0.7,1.4,1.2c0.3,0.5,0.5,1.1,0.5,1.7v4.3c0,0.7-0.2,1.2-0.5,1.7c-0.3,0.5-0.8,0.9-1.4,1.2c-0.6,0.3-1.3,0.4-2.1,0.4
	h-3.9C95.1,160,95.1,160,95,160z M97.3,158.1h1.9c0.5,0,0.9-0.2,1.2-0.5c0.3-0.3,0.5-0.8,0.5-1.3v-3.6c0-0.5-0.1-1-0.4-1.3
	c-0.3-0.3-0.7-0.5-1.2-0.5h-1.9c-0.1,0-0.1,0-0.1,0.1L97.3,158.1C97.2,158.1,97.2,158.1,97.3,158.1z"/>
<path class="st1" d="M105.8,160c0,0-0.1-0.1-0.1-0.1v-10.7c0-0.1,0-0.1,0.1-0.1c0,0,0.1-0.1,0.1-0.1h1.8c0.1,0,0.1,0,0.1,0.1
	c0,0,0.1,0.1,0.1,0.1v10.7c0,0.1,0,0.1-0.1,0.1c0,0-0.1,0.1-0.1,0.1h-1.8C105.9,160,105.8,160,105.8,160z"/>
<path class="st1" d="M112.6,159.7c-0.6-0.3-1.1-0.8-1.4-1.4c-0.3-0.6-0.5-1.3-0.5-2v-3.5c0-0.8,0.2-1.4,0.5-2c0.3-0.6,0.8-1,1.4-1.4
	c0.6-0.3,1.3-0.5,2.1-0.5c0.8,0,1.5,0.2,2.1,0.5c0.6,0.3,1.1,0.7,1.4,1.3c0.3,0.5,0.5,1.1,0.5,1.8v0.1c0,0.1,0,0.1-0.1,0.1
	c0,0-0.1,0.1-0.1,0.1h-1.8c-0.1,0-0.1,0-0.1-0.1c0,0-0.1-0.1-0.1-0.1v0c0-0.5-0.2-0.9-0.5-1.2c-0.3-0.3-0.8-0.5-1.3-0.5
	c-0.6,0-1,0.2-1.4,0.5c-0.3,0.4-0.5,0.8-0.5,1.4v3.7c0,0.6,0.2,1,0.6,1.4s0.8,0.5,1.4,0.5c0.5,0,1-0.1,1.3-0.4
	c0.3-0.3,0.5-0.7,0.5-1.2v-0.7c0-0.1,0-0.1-0.1-0.1h-1.8c-0.1,0-0.1,0-0.1-0.1c0,0-0.1-0.1-0.1-0.1v-1.4c0-0.1,0-0.1,0.1-0.1
	c0,0,0.1-0.1,0.1-0.1h3.8c0.1,0,0.1,0,0.1,0.1c0,0,0.1,0.1,0.1,0.1v2.1c0,0.8-0.2,1.5-0.5,2.1s-0.8,1-1.4,1.3
	c-0.6,0.3-1.3,0.5-2.1,0.5C114,160.2,113.2,160,112.6,159.7z"/>
<path class="st1" d="M121.6,160c0,0-0.1-0.1-0.1-0.1v-10.7c0-0.1,0-0.1,0.1-0.1c0,0,0.1-0.1,0.1-0.1h1.8c0.1,0,0.1,0,0.1,0.1
	c0,0,0.1,0.1,0.1,0.1v10.7c0,0.1,0,0.1-0.1,0.1c0,0-0.1,0.1-0.1,0.1h-1.8C121.6,160,121.6,160,121.6,160z"/>
<path class="st1" d="M134.4,149.1c0,0,0.1,0.1,0.1,0.1v1.5c0,0.1,0,0.1-0.1,0.1c0,0-0.1,0.1-0.1,0.1h-2.8c-0.1,0-0.1,0-0.1,0.1v8.8
	c0,0.1,0,0.1-0.1,0.1c0,0-0.1,0.1-0.1,0.1h-1.8c-0.1,0-0.1,0-0.1-0.1c0,0-0.1-0.1-0.1-0.1V151c0-0.1,0-0.1-0.1-0.1h-2.7
	c-0.1,0-0.1,0-0.1-0.1c0,0-0.1-0.1-0.1-0.1v-1.5c0-0.1,0-0.1,0.1-0.1c0,0,0.1-0.1,0.1-0.1h7.9C134.4,149,134.4,149,134.4,149.1z"/>
<path class="st1" d="M142.7,159.9l-0.5-1.5c0,0,0-0.1-0.1-0.1h-3.9c0,0-0.1,0-0.1,0.1l-0.5,1.5c0,0.1-0.1,0.2-0.2,0.2h-2
	c-0.1,0-0.1,0-0.1-0.1c0,0,0-0.1,0-0.2l3.4-10.7c0-0.1,0.1-0.2,0.2-0.2h2.5c0.1,0,0.2,0.1,0.2,0.2l3.4,10.7c0,0,0,0,0,0.1
	c0,0.1-0.1,0.1-0.2,0.1h-2C142.8,160,142.7,160,142.7,159.9z M138.8,156.5h2.8c0.1,0,0.1,0,0.1-0.1l-1.4-4.7c0,0,0-0.1,0-0.1
	c0,0,0,0,0,0.1L138.8,156.5C138.7,156.5,138.7,156.5,138.8,156.5z"/>
<path class="st1" d="M147.5,160c0,0-0.1-0.1-0.1-0.1v-10.7c0-0.1,0-0.1,0.1-0.1c0,0,0.1-0.1,0.1-0.1h1.8c0.1,0,0.1,0,0.1,0.1
	c0,0,0.1,0.1,0.1,0.1v8.9c0,0.1,0,0.1,0.1,0.1h5.2c0.1,0,0.1,0,0.1,0.1c0,0,0.1,0.1,0.1,0.1v1.5c0,0.1,0,0.1-0.1,0.1
	c0,0-0.1,0.1-0.1,0.1h-7.3C147.6,160,147.6,160,147.5,160z"/>
<path class="st1" d="M168,159.9l-0.5-1.5c0,0,0-0.1-0.1-0.1h-3.9c0,0-0.1,0-0.1,0.1l-0.5,1.5c0,0.1-0.1,0.2-0.2,0.2h-2
	c-0.1,0-0.1,0-0.1-0.1c0,0,0-0.1,0-0.2l3.4-10.7c0-0.1,0.1-0.2,0.2-0.2h2.5c0.1,0,0.2,0.1,0.2,0.2l3.4,10.7c0,0,0,0,0,0.1
	c0,0.1-0.1,0.1-0.2,0.1h-2C168.1,160,168.1,160,168,159.9z M164.2,156.5h2.8c0.1,0,0.1,0,0.1-0.1l-1.4-4.7c0,0,0-0.1,0-0.1
	c0,0,0,0,0,0.1L164.2,156.5C164.1,156.5,164.1,156.5,164.2,156.5z"/>
<path class="st1" d="M174.3,159.7c-0.6-0.3-1.1-0.8-1.4-1.4c-0.3-0.6-0.5-1.3-0.5-2v-3.5c0-0.8,0.2-1.4,0.5-2c0.3-0.6,0.8-1,1.4-1.4
	c0.6-0.3,1.3-0.5,2.1-0.5c0.8,0,1.5,0.2,2.1,0.5c0.6,0.3,1.1,0.7,1.4,1.3c0.3,0.5,0.5,1.1,0.5,1.8v0.1c0,0.1,0,0.1-0.1,0.1
	c0,0-0.1,0.1-0.1,0.1h-1.8c-0.1,0-0.1,0-0.1-0.1c0,0-0.1-0.1-0.1-0.1v0c0-0.5-0.2-0.9-0.5-1.2c-0.3-0.3-0.8-0.5-1.3-0.5
	c-0.6,0-1,0.2-1.4,0.5s-0.5,0.8-0.5,1.4v3.7c0,0.6,0.2,1,0.6,1.4s0.8,0.5,1.4,0.5c0.5,0,1-0.1,1.3-0.4c0.3-0.3,0.5-0.7,0.5-1.2v-0.7
	c0-0.1,0-0.1-0.1-0.1h-1.8c-0.1,0-0.1,0-0.1-0.1c0,0-0.1-0.1-0.1-0.1v-1.4c0-0.1,0-0.1,0.1-0.1c0,0,0.1-0.1,0.1-0.1h3.8
	c0.1,0,0.1,0,0.1,0.1c0,0,0.1,0.1,0.1,0.1v2.1c0,0.8-0.2,1.5-0.5,2.1c-0.3,0.6-0.8,1-1.4,1.3c-0.6,0.3-1.3,0.5-2.1,0.5
	C175.6,160.2,174.9,160,174.3,159.7z"/>
<path class="st1" d="M190.8,150.8c0,0-0.1,0.1-0.1,0.1h-5.2c-0.1,0-0.1,0-0.1,0.1v2.4c0,0.1,0,0.1,0.1,0.1h3.4c0.1,0,0.1,0,0.1,0.1
	c0,0,0.1,0.1,0.1,0.1v1.5c0,0.1,0,0.1-0.1,0.1c0,0-0.1,0.1-0.1,0.1h-3.4c-0.1,0-0.1,0-0.1,0.1v2.6c0,0.1,0,0.1,0.1,0.1h5.2
	c0.1,0,0.1,0,0.1,0.1c0,0,0.1,0.1,0.1,0.1v1.5c0,0.1,0,0.1-0.1,0.1c0,0-0.1,0.1-0.1,0.1h-7.3c-0.1,0-0.1,0-0.1-0.1
	c0,0-0.1-0.1-0.1-0.1v-10.7c0-0.1,0-0.1,0.1-0.1c0,0,0.1-0.1,0.1-0.1h7.3c0.1,0,0.1,0,0.1,0.1c0,0,0.1,0.1,0.1,0.1v1.5
	C190.9,150.8,190.8,150.8,190.8,150.8z"/>
<path class="st1" d="M199.8,149.1c0,0,0.1-0.1,0.1-0.1h1.8c0.1,0,0.1,0,0.1,0.1c0,0,0.1,0.1,0.1,0.1v10.7c0,0.1,0,0.1-0.1,0.1
	c0,0-0.1,0.1-0.1,0.1H200c-0.1,0-0.2,0-0.2-0.1l-4.1-6.7c0,0,0,0-0.1,0c0,0,0,0,0,0.1l0,6.6c0,0.1,0,0.1-0.1,0.1
	c0,0-0.1,0.1-0.1,0.1h-1.8c-0.1,0-0.1,0-0.1-0.1c0,0-0.1-0.1-0.1-0.1v-10.7c0-0.1,0-0.1,0.1-0.1c0,0,0.1-0.1,0.1-0.1h1.8
	c0.1,0,0.2,0,0.2,0.1l4.1,6.7c0,0,0,0,0.1,0c0,0,0,0,0-0.1l0-6.6C199.7,149.1,199.7,149.1,199.8,149.1z"/>
<path class="st1" d="M206.6,159.7c-0.6-0.3-1.1-0.8-1.4-1.3c-0.3-0.6-0.5-1.2-0.5-2v-3.6c0-0.8,0.2-1.4,0.5-2c0.3-0.6,0.8-1,1.4-1.3
	c0.6-0.3,1.3-0.5,2.2-0.5c0.8,0,1.5,0.2,2.1,0.4c0.6,0.3,1.1,0.7,1.4,1.3c0.3,0.6,0.5,1.2,0.5,1.9c0,0.1-0.1,0.2-0.2,0.2l-1.8,0.1h0
	c-0.1,0-0.2-0.1-0.2-0.2c0-0.6-0.2-1-0.5-1.3c-0.3-0.3-0.8-0.5-1.3-0.5c-0.6,0-1,0.2-1.4,0.5c-0.3,0.3-0.5,0.8-0.5,1.3v3.8
	c0,0.5,0.2,1,0.5,1.3c0.3,0.3,0.8,0.5,1.4,0.5c0.6,0,1-0.2,1.3-0.5c0.3-0.3,0.5-0.8,0.5-1.3c0-0.1,0.1-0.2,0.2-0.2l1.8,0.1
	c0.1,0,0.1,0,0.1,0c0,0,0.1,0.1,0.1,0.1c0,0.7-0.2,1.4-0.5,1.9c-0.3,0.6-0.8,1-1.4,1.3c-0.6,0.3-1.3,0.5-2.1,0.5
	C207.9,160.2,207.2,160,206.6,159.7z"/>
<path class="st1" d="M218,160c0,0-0.1-0.1-0.1-0.1v-4c0,0,0-0.1,0-0.1l-3.2-6.5c0,0,0-0.1,0-0.1c0-0.1,0.1-0.1,0.2-0.1h2
	c0.1,0,0.2,0,0.2,0.1l2,4.2c0,0.1,0.1,0.1,0.1,0l2-4.2c0-0.1,0.1-0.1,0.2-0.1h2c0.1,0,0.1,0,0.1,0.1c0,0,0,0.1,0,0.2l-3.3,6.5
	c0,0,0,0.1,0,0.1v4c0,0.1,0,0.1-0.1,0.1c0,0-0.1,0.1-0.1,0.1h-1.8C218,160,218,160,218,160z"/>
</svg>
